<svg version="1.1" id="Layer_1" xmlns="http://www.w3.org/2000/svg" xmlns:xlink="http://www.w3.org/1999/xlink" x="0px" y="0px"
	 width="100%" viewBox="0 0 1024 1024" enable-background="new 0 0 1024 1024" xml:space="preserve">
<path fill="#000000" opacity="1.000000" stroke="none" 
	d="
M199.997437,428.000000 
	C200.208282,403.018616 200.407532,378.537170 200.633286,354.055939 
	C200.698105,347.025269 201.963654,345.640869 208.852234,344.851105 
	C228.363983,342.614105 247.924454,340.911194 267.545074,340.079315 
	C276.782104,339.687683 285.814240,340.948578 294.216858,345.247986 
	C317.147552,356.981140 317.211243,383.920410 307.047577,397.929626 
	C302.920898,403.617645 303.063721,403.721313 308.636139,407.707611 
	C325.898926,420.056824 327.868286,447.952301 312.738068,465.106476 
	C302.817841,476.353821 289.912506,481.567932 275.446167,483.246368 
	C252.482117,485.910706 229.342209,487.004974 206.515564,490.910126 
	C202.496323,491.597717 200.469925,489.872009 200.145401,485.964874 
	C199.994049,484.142670 200.005554,482.303955 200.004456,480.472687 
	C199.994080,463.148468 199.996902,445.824219 199.997437,428.000000 
M281.757507,426.867706 
	C278.208191,422.409241 273.482666,420.402405 267.885559,420.168793 
	C260.225708,419.849091 252.608429,420.465302 245.035843,421.459564 
	C238.763245,422.283112 236.324265,425.103119 236.175003,431.389252 
	C236.048904,436.700439 236.145737,442.018646 236.224075,447.332581 
	C236.326111,454.252563 239.189896,457.032410 246.089661,456.557251 
	C252.874100,456.089996 259.662659,455.505035 266.403870,454.623596 
	C281.752563,452.616730 288.773987,440.416168 281.757507,426.867706 
M236.294739,387.905945 
	C236.570374,391.102020 237.560989,394.296814 241.139771,394.484222 
	C250.768127,394.988403 260.456024,394.591858 269.639008,391.433258 
	C275.046570,389.573273 277.653259,383.435791 276.491333,377.899780 
	C275.340179,372.415100 271.634613,369.354126 265.417725,369.105591 
	C261.442566,368.946655 257.449188,369.042755 253.470901,369.199921 
	C237.782623,369.819580 236.198135,371.490143 236.294739,387.905945 
z"/>
<path fill="#000000" opacity="1.000000" stroke="none" 
	d="
M311.490936,563.505981 
	C324.559357,577.511047 323.983246,601.923096 310.899780,616.833679 
	C299.934784,629.329956 285.437622,634.033691 269.814178,636.102844 
	C248.877975,638.875549 227.768417,640.289246 206.987823,644.323792 
	C201.624939,645.364990 199.932983,643.477051 199.936951,637.097595 
	C199.952103,612.777100 200.043243,588.456543 200.089447,564.136047 
	C200.121078,547.486572 200.149582,530.837036 200.130447,514.187561 
	C200.122208,507.008148 201.254456,505.293518 208.363297,504.206512 
	C229.087952,501.037445 249.866058,498.239563 270.810760,496.979553 
	C279.070221,496.482666 287.093689,497.797577 294.673981,501.248230 
	C314.913086,510.461365 317.403961,535.610229 306.102203,551.590088 
	C305.053345,553.073120 303.995239,554.549561 302.838837,556.173096 
	C305.084747,559.404053 308.926819,560.453918 311.490936,563.505981 
M264.468109,573.925964 
	C257.333069,574.361450 250.155457,574.480164 243.186172,576.314941 
	C238.580063,577.527466 236.206406,580.526306 236.259384,585.396790 
	C236.315521,590.558411 236.191071,595.722412 236.279282,600.883057 
	C236.379562,606.749817 238.307022,608.708252 244.080963,608.761719 
	C251.931671,608.834351 259.649078,607.433105 267.356293,606.206299 
	C270.605927,605.689087 273.766693,604.408020 276.567993,602.498413 
	C282.623718,598.370239 285.268921,590.738953 283.140106,583.519592 
	C281.369476,577.515076 276.665924,574.344543 268.926208,573.960815 
	C267.762787,573.903137 266.595581,573.920654 264.468109,573.925964 
M259.052490,549.592896 
	C261.351074,549.248230 263.683502,549.050720 265.941742,548.530762 
	C272.222992,547.084656 276.108734,541.718445 275.662659,535.316895 
	C275.245331,529.327698 271.688141,526.140808 264.632812,525.419983 
	C260.451477,524.992737 256.365875,525.912354 252.238632,526.264587 
	C237.451614,527.526428 235.244583,530.156982 236.178940,544.881897 
	C236.457230,549.267761 238.538269,551.312317 242.800217,551.028870 
	C247.931549,550.687622 253.049774,550.149353 259.052490,549.592896 
z"/>
<path fill="#000000" opacity="1.000000" stroke="none" 
	d="
M589.698730,482.012634 
	C589.682678,478.516632 589.709351,475.516510 589.641235,472.518555 
	C589.547119,468.374512 591.809631,466.142700 595.660645,466.061371 
	C603.650818,465.892731 611.652222,466.002167 619.642944,466.219940 
	C623.476196,466.324463 625.915222,468.974457 628.074890,471.844391 
	C641.295959,489.413330 654.516602,506.982513 667.761902,524.533142 
	C669.319397,526.596802 670.667053,528.999329 673.638367,529.451477 
	C675.567688,527.353088 674.944275,524.905151 674.945129,522.674011 
	C674.951416,507.011719 674.854492,491.349396 674.799316,475.687103 
	C674.776245,469.143097 675.319458,468.551788 681.967407,468.605927 
	C689.628235,468.668335 697.282776,468.795380 704.921509,469.621735 
	C710.943298,470.273163 712.128540,471.254883 712.120789,477.320465 
	C712.089355,501.980682 712.084473,526.641357 711.906677,551.300720 
	C711.815430,563.956177 712.288696,576.612671 711.514221,589.273743 
	C711.230469,593.912598 709.296936,595.502502 704.981384,595.184509 
	C698.009888,594.671021 691.037415,594.093567 684.054626,593.835510 
	C679.047668,593.650574 675.729675,591.095703 672.884216,587.323547 
	C660.243652,570.566406 647.542480,553.854919 634.865295,537.125366 
	C634.261719,536.328918 633.723450,535.478333 633.073303,534.722961 
	C631.995544,533.470947 630.929504,531.883728 628.973267,532.551208 
	C626.939880,533.245056 627.260071,535.201477 627.259033,536.819336 
	C627.248901,552.815186 627.284851,568.811096 627.284851,584.806946 
	C627.284790,591.743835 626.102417,592.700867 618.996704,592.523438 
	C611.836304,592.344604 604.669189,592.447144 597.505066,592.403625 
	C590.803284,592.362915 589.727966,591.323364 589.722290,584.483459 
	C589.693909,550.492126 589.703186,516.500793 589.698730,482.012634 
z"/>
<path fill="#000000" opacity="1.000000" stroke="none" 
	d="
M709.273438,396.000061 
	C709.268372,414.154846 709.292542,431.809692 709.242920,449.464355 
	C709.221924,456.933258 708.220337,457.816772 700.839050,457.412323 
	C694.190918,457.048126 687.546082,456.462341 680.894714,456.378601 
	C676.811829,456.327179 673.966858,454.706360 671.590210,451.578918 
	C659.399841,435.537262 647.154053,419.537659 634.931030,403.520844 
	C634.122864,402.461792 633.389954,401.341949 632.537476,400.321014 
	C631.373230,398.926666 630.178650,397.066254 628.133789,397.604553 
	C625.494934,398.299225 626.266296,400.836700 626.258911,402.696625 
	C626.200073,417.519592 626.234375,432.342926 626.231506,447.166138 
	C626.230164,453.868011 625.082825,455.130310 618.424500,455.061920 
	C610.769226,454.983307 603.117065,454.618805 595.461792,454.514435 
	C591.260864,454.457092 589.476685,452.204498 589.202881,448.324982 
	C589.097534,446.831573 589.020325,445.332489 589.019775,443.835938 
	C589.008301,413.689697 588.980408,383.543365 589.036377,353.397247 
	C589.046265,348.074829 589.561707,342.753510 589.576111,337.430939 
	C589.587463,333.227997 591.624146,331.133850 595.609680,331.171143 
	C603.595032,331.245880 611.580566,331.500946 619.560852,331.813599 
	C623.301758,331.960144 625.369690,334.718719 627.387512,337.418854 
	C640.446228,354.893799 653.493103,372.377686 666.588501,389.825073 
	C667.727173,391.342133 668.577087,393.925018 670.943604,393.313568 
	C673.731384,392.593292 672.900452,389.760834 672.903931,387.757202 
	C672.929871,372.601074 672.813110,357.444733 672.789429,342.288391 
	C672.777649,334.778503 673.956116,333.625793 681.609741,333.914062 
	C688.095154,334.158386 694.574341,334.586853 701.053345,334.981781 
	C707.671631,335.385193 709.229492,336.988159 709.242676,343.535431 
	C709.277405,360.856903 709.265869,378.178497 709.273438,396.000061 
z"/>
<path fill="#000000" opacity="1.000000" stroke="none" 
	d="
M537.990540,270.916077 
	C568.938843,272.034332 599.269409,274.263519 629.514526,278.290222 
	C666.849121,283.260742 703.651001,291.054504 740.672791,297.694794 
	C765.819885,302.205139 791.233948,303.834900 816.764587,303.819031 
	C823.153137,303.815063 826.717468,307.405701 826.225708,313.246094 
	C825.803528,318.259644 823.640625,320.317963 818.554688,320.383118 
	C783.442444,320.833160 748.811707,316.958862 714.401184,309.930695 
	C679.999207,302.904297 645.411743,296.855011 610.448059,293.067413 
	C574.635620,289.187836 538.771606,286.738678 502.745026,287.361450 
	C468.080261,287.960724 433.617920,291.192902 399.223663,295.476685 
	C362.677979,300.028412 326.564514,307.036560 290.361847,313.603790 
	C271.348328,317.052917 252.120193,318.990692 232.759048,319.329712 
	C226.266144,319.443420 219.780426,319.943268 213.287445,320.085114 
	C206.612640,320.230957 203.233109,317.409149 203.053284,311.855438 
	C202.897629,307.048401 206.082443,304.038361 212.210159,303.534424 
	C224.830307,302.496490 237.507355,302.905090 250.146881,301.875366 
	C268.101440,300.412659 285.783386,297.344116 303.461639,294.099884 
	C327.683289,289.654816 351.818359,284.579041 376.177948,281.077087 
	C429.647247,273.390381 483.396637,269.137634 537.990540,270.916077 
z"/>
<path fill="#000000" opacity="1.000000" stroke="none" 
	d="
M411.369476,511.408936 
	C400.929688,513.118225 390.907623,514.692078 380.921570,516.468567 
	C373.664948,517.759521 370.187103,525.100647 373.569855,531.809204 
	C375.076813,534.797852 377.927185,533.802979 380.250793,533.453125 
	C388.804810,532.164978 397.323608,530.644592 405.860718,529.242249 
	C408.979340,528.730103 412.106506,528.261475 415.239838,527.849548 
	C418.472260,527.424683 420.331024,528.604248 420.374329,532.163635 
	C420.429047,536.656433 420.661835,541.147583 420.853302,545.638000 
	C421.050446,550.261353 418.977936,552.634827 414.273956,553.254883 
	C402.732330,554.776306 391.248383,556.747620 379.695312,558.163391 
	C375.007812,558.737793 373.051483,560.552979 373.026520,565.425659 
	C372.960175,578.375122 372.849548,578.256409 385.726532,576.339050 
	C402.015808,573.913513 418.370331,571.928162 434.667725,569.553955 
	C439.269196,568.883545 441.294037,570.454529 441.261871,575.034607 
	C441.215118,581.697449 441.208191,588.361267 441.266907,595.023926 
	C441.305481,599.402100 439.426727,601.794678 434.902283,602.318726 
	C404.314514,605.861877 373.995880,611.087219 343.783051,616.982544 
	C336.942017,618.317383 334.960419,616.535278 334.948608,609.539673 
	C334.887634,573.392090 334.936157,537.244080 334.728271,501.097412 
	C334.697784,495.792816 336.619598,493.175995 341.770233,492.115631 
	C372.091064,485.873352 402.614105,480.779358 433.165619,475.848541 
	C439.490143,474.827820 440.960693,476.218170 441.045227,482.639618 
	C441.126343,488.801788 440.963684,494.967926 441.090454,501.128540 
	C441.178650,505.414276 439.228943,507.543365 435.034210,508.087402 
	C427.279297,509.093140 419.545319,510.260376 411.369476,511.408936 
z"/>
<path fill="#000000" opacity="1.000000" stroke="none" 
	d="
M441.278992,454.725708 
	C441.567047,459.821747 439.139679,461.733978 434.757782,462.193298 
	C404.944824,465.318512 375.389069,470.104553 346.016144,476.066986 
	C337.274933,477.841370 335.721832,476.479919 335.714935,467.441132 
	C335.688721,433.109497 335.662781,398.777863 335.665619,364.446228 
	C335.666199,357.419769 336.413971,356.596893 343.265045,355.139282 
	C372.247467,348.973083 401.425110,343.866638 430.654144,339.040283 
	C431.966431,338.823608 433.300690,338.718872 434.629211,338.625275 
	C440.137482,338.237305 441.232025,339.173370 441.288208,344.547455 
	C441.350952,350.546570 441.020752,356.565338 441.403931,362.540802 
	C441.736023,367.719330 439.412109,369.592407 434.647888,370.293610 
	C416.698792,372.935425 398.685791,375.204193 380.905975,378.904907 
	C374.046051,380.332764 370.553314,387.724152 373.864441,393.863983 
	C375.465668,396.833130 378.254456,395.739868 380.575012,395.400269 
	C391.279541,393.833679 401.957275,392.084656 412.648224,390.424500 
	C418.449554,389.523621 419.882721,390.636749 420.082611,396.491272 
	C420.224731,400.652557 420.034607,404.824219 420.117828,408.988770 
	C420.196777,412.938965 418.119171,414.696136 414.432007,415.168182 
	C403.706207,416.541351 392.999054,418.066589 382.262756,419.349487 
	C374.176239,420.315735 369.811066,429.086731 374.100861,436.180939 
	C375.792999,438.979279 378.604431,437.950897 380.920471,437.657440 
	C391.483582,436.318970 402.009552,434.689453 412.568634,433.316589 
	C420.323639,432.308289 428.108978,431.532837 435.881348,430.658630 
	C439.685028,430.230774 441.448517,431.862122 441.368530,435.761902 
	C441.242126,441.925751 441.301819,448.093384 441.278992,454.725708 
z"/>
<path fill="#000000" opacity="1.000000" stroke="none" 
	d="
M450.288239,598.586609 
	C447.730469,595.151367 449.537384,592.181519 450.683411,589.359680 
	C463.831757,556.985046 477.049713,524.638489 490.311340,492.310089 
	C491.718506,488.879822 492.999512,485.662048 491.856171,481.763062 
	C491.227356,479.618713 491.525482,477.113129 491.790985,474.814941 
	C492.306732,470.351196 494.577972,467.244659 499.423859,467.151215 
	C509.909607,466.948914 520.398682,466.896606 530.886658,466.844330 
	C534.919067,466.824219 536.649109,469.680878 537.955139,472.900696 
	C544.333923,488.626709 550.754028,504.336334 557.044922,520.097534 
	C565.309631,540.804016 573.468445,561.552795 581.667908,582.285278 
	C582.157471,583.523071 582.689087,584.753357 583.055542,586.028992 
	C584.291504,590.331909 583.192444,592.114746 578.838013,592.321777 
	C571.026611,592.693176 563.203735,592.815063 555.388611,593.118774 
	C550.721130,593.300171 548.123047,591.158203 546.552185,586.741943 
	C542.566772,575.537048 541.286377,574.789795 529.501892,574.926086 
	C519.844666,575.037781 510.187408,575.154236 500.531097,575.321045 
	C493.534973,575.441956 490.899872,577.299377 488.720612,583.789001 
	C483.596130,599.048950 485.965454,596.860657 469.358612,598.216919 
	C463.120209,598.726379 456.899414,600.494568 450.288239,598.586609 
M528.172119,544.206238 
	C525.676697,537.330688 523.204834,530.446472 520.666199,523.586853 
	C520.153137,522.200378 519.554321,520.581665 517.781433,520.506592 
	C515.759949,520.421082 515.008850,522.121460 514.409363,523.672424 
	C511.833282,530.337036 509.271210,537.007996 506.806671,543.714294 
	C505.456635,547.387878 507.231476,549.225037 510.803406,549.229431 
	C515.622070,549.235413 520.441345,548.910034 525.260010,548.717224 
	C527.696228,548.619812 529.062317,547.608337 528.172119,544.206238 
z"/>
<path fill="#000000" opacity="1.000000" stroke="none" 
	d="
M474.001526,397.093781 
	C480.087830,382.617767 485.785278,368.388611 492.719879,354.710876 
	C493.713043,352.751923 493.695312,350.980377 492.993134,348.969757 
	C492.168549,346.608673 491.725311,344.151337 491.985443,341.599792 
	C492.663574,334.948700 494.810699,332.917114 501.524414,332.781403 
	C510.344513,332.603088 519.168152,332.551758 527.984741,332.270233 
	C533.501648,332.094055 536.380188,334.854828 538.305969,339.788818 
	C544.782593,356.382294 551.515198,372.876007 558.162903,389.402618 
	C565.618774,407.938171 573.091431,426.466980 580.547791,445.002350 
	C581.106689,446.391693 581.705200,447.779816 582.093750,449.220184 
	C583.106262,452.972992 581.667480,455.096741 577.713135,455.133820 
	C569.216492,455.213501 560.718811,455.184113 552.221802,455.233643 
	C548.601074,455.254761 546.451050,453.012024 545.748535,449.994659 
	C542.877441,437.663544 534.655457,434.860657 523.258179,436.068787 
	C515.338013,436.908356 507.303253,436.358124 499.313751,437.033356 
	C493.869110,437.493530 489.907471,439.911743 489.011505,444.838440 
	C486.736145,457.350281 478.527924,459.922394 467.600281,459.348175 
	C463.817230,459.149353 459.988037,460.059631 456.169281,460.253479 
	C450.588959,460.536835 448.920135,458.621918 450.940002,453.370117 
	C455.481201,441.562469 460.409760,429.903290 465.217651,418.198883 
	C468.064209,411.269104 470.981262,404.368286 474.001526,397.093781 
M514.239624,387.859619 
	C512.178833,393.459900 510.020569,399.026825 508.089600,404.671509 
	C506.667664,408.828186 507.904419,410.622498 512.299194,410.821991 
	C515.940430,410.987305 519.597534,410.772247 523.247131,410.795013 
	C527.465149,410.821320 528.536255,408.665314 527.257141,405.000092 
	C525.126587,398.895538 522.929688,392.813507 520.689453,386.748322 
	C520.182617,385.375977 519.568115,383.933838 517.797119,383.665955 
	C515.956055,384.161072 515.331787,385.768341 514.239624,387.859619 
z"/>
<path fill="#000000" opacity="1.000000" stroke="none" 
	d="
M778.777954,521.120483 
	C792.158386,525.321777 805.596741,528.334106 816.569214,537.219360 
	C833.735229,551.119934 834.830017,579.334839 818.500183,593.243469 
	C809.269836,601.105286 797.907654,602.320129 786.458374,601.875366 
	C770.161560,601.242310 753.933044,599.555847 737.747498,597.457214 
	C733.509460,596.907654 731.382629,595.134705 731.328247,590.861145 
	C731.247742,584.534912 731.002014,578.209106 731.024841,571.883789 
	C731.041138,567.384033 733.374878,565.173462 738.022400,565.630981 
	C750.442627,566.853577 762.862244,568.086182 775.291687,569.208862 
	C779.432312,569.582825 783.600220,569.707703 787.758972,569.807373 
	C790.180969,569.865417 792.608032,569.361206 793.506042,566.746521 
	C794.369690,564.231750 793.739136,561.810303 791.967041,559.753357 
	C789.452820,556.835083 785.980774,555.593567 782.490051,554.464417 
	C773.781067,551.647339 764.815796,549.643738 756.328918,546.114685 
	C750.608704,543.736145 745.173767,540.924255 740.316650,537.006531 
	C725.095154,524.728882 721.952759,498.575287 734.143372,484.868805 
	C740.756775,477.433075 749.380981,474.235657 759.031006,473.829834 
	C779.243469,472.979767 799.274231,475.272827 819.271851,477.848297 
	C821.994263,478.198914 824.111328,479.493256 824.247314,482.522583 
	C824.560730,489.504028 825.492249,496.482483 824.632874,503.481720 
	C824.011292,508.544525 822.430786,509.885071 817.366577,509.091217 
	C802.727661,506.796448 787.993408,505.346954 773.269409,503.774780 
	C769.152649,503.335205 765.318359,503.382111 763.754272,507.937225 
	C762.198120,512.469299 765.096069,515.298340 768.665161,517.158142 
	C771.741211,518.760986 775.145874,519.733215 778.777954,521.120483 
z"/>
<path fill="#000000" opacity="1.000000" stroke="none" 
	d="
M791.755859,375.639832 
	C791.727539,366.354462 791.641541,357.528046 791.669739,348.701996 
	C791.686890,343.348755 792.871155,342.115875 798.225525,342.593231 
	C805.343811,343.227844 812.438049,344.169464 819.522522,345.127686 
	C822.299194,345.503296 825.096619,346.735596 825.093506,349.914185 
	C825.078674,364.984985 827.129211,380.222168 821.250427,394.844391 
	C817.302429,404.664215 811.274048,412.588959 801.601562,417.118500 
	C797.118835,419.217712 795.696228,422.172607 795.836853,426.901642 
	C796.118591,436.378235 796.014954,445.869385 795.920898,455.353027 
	C795.854736,462.027344 794.005493,463.388275 787.249268,462.626587 
	C780.310120,461.844299 773.346558,461.279144 766.394287,460.613342 
	C761.505249,460.145142 759.504211,457.364746 759.562439,452.556213 
	C759.677307,443.065033 759.471008,433.568909 759.666748,424.080353 
	C759.749329,420.072998 758.306824,417.420715 754.736938,415.700165 
	C734.517639,405.955322 726.974121,388.533997 725.889771,367.414673 
	C725.480286,359.439697 725.874207,351.426422 725.635742,343.438568 
	C725.494568,338.711060 727.489868,336.524445 732.133606,336.899048 
	C739.924622,337.527466 747.714050,338.196198 755.488953,338.995178 
	C759.602356,339.417908 761.540588,341.709412 761.438965,346.058624 
	C761.244446,354.380798 761.198792,362.715210 761.412903,371.036285 
	C761.810425,386.488617 769.725037,389.712341 783.764221,387.782654 
	C788.972961,387.066742 791.230042,383.122986 791.755859,375.639832 
z"/>
<path fill="#000000" opacity="1.000000" stroke="none" 
	d="
M534.990540,698.975403 
	C537.720825,698.348328 540.116272,693.430237 543.250793,698.098816 
	C545.965942,702.142883 542.932922,704.769775 540.464844,707.416748 
	C539.795837,708.134155 539.065063,708.794006 538.186890,709.742188 
	C538.011169,710.004089 538.048401,709.978760 538.048401,709.978760 
	C528.581482,714.125793 520.341919,719.659912 515.054688,728.974670 
	C512.502319,733.471375 509.029266,737.396606 504.516022,740.100586 
	C499.904266,742.863647 494.729095,745.838806 489.734344,742.057861 
	C483.824005,737.583740 478.974182,732.036865 481.125214,723.438965 
	C484.698639,709.155579 493.112946,698.887512 506.193359,692.245972 
	C513.854919,688.355896 521.609192,685.201233 530.491211,686.518921 
	C533.661255,686.989258 536.859070,687.200623 538.427795,690.656799 
	C540.079651,694.296204 536.895935,696.039551 534.858093,698.823608 
	C529.085754,701.446960 523.838928,703.685425 518.592102,705.923889 
	C524.269653,704.080139 530.540100,703.576538 534.990540,698.975403 
M509.801971,713.989197 
	C510.078369,713.315369 511.105743,712.881836 510.377441,711.710327 
	C502.787384,717.757629 500.201569,727.161804 494.582062,734.449768 
	C501.757721,729.428589 504.131561,720.864807 509.801971,713.989197 
z"/>
<path fill="#000000" opacity="1.000000" stroke="none" 
	d="
M760.999878,688.372803 
	C745.691956,688.358643 730.883606,688.407959 716.076355,688.300781 
	C710.218872,688.258423 707.328125,685.276978 707.333374,679.798035 
	C707.337646,675.343933 709.682251,672.686707 714.187317,672.168457 
	C715.835999,671.978760 717.509094,671.938171 719.171143,671.937256 
	C751.781860,671.918640 784.392578,671.931946 817.003235,671.886414 
	C820.420044,671.881653 823.261047,672.690918 824.915466,675.947815 
	C826.518433,679.103333 825.746582,682.085388 824.180847,684.983582 
	C822.473755,688.143616 819.486511,688.290649 816.405701,688.293030 
	C798.103760,688.307373 779.801880,688.344299 760.999878,688.372803 
z"/>
<path fill="#000000" opacity="1.000000" stroke="none" 
	d="
M203.910553,684.820374 
	C201.254868,676.038574 203.834961,672.093872 212.371643,672.043335 
	C242.009171,671.867798 271.647736,671.828247 301.285919,671.835388 
	C307.578735,671.836914 310.802551,674.844360 310.904510,680.204651 
	C310.998291,685.135620 307.687195,688.150452 301.500702,688.169434 
	C271.362549,688.261658 241.224075,688.237671 211.085709,688.259094 
	C208.301971,688.261047 205.778198,687.703369 203.910553,684.820374 
z"/>
<path fill="#000000" opacity="1.000000" stroke="none" 
	d="
M537.995605,710.020264 
	C538.436829,709.836365 538.919800,709.680542 539.346191,709.428894 
	C541.691467,708.044739 543.855957,705.348022 546.898315,707.681885 
	C549.864929,709.957703 550.235291,713.234802 549.586914,716.717834 
	C546.059509,735.666382 523.004944,753.621460 503.888458,752.203491 
	C499.534698,751.880554 495.421906,750.837341 493.124207,746.085876 
	C496.014465,744.030151 499.280945,743.969238 502.167175,742.971558 
	C508.860840,740.657959 514.496582,737.131409 518.003174,730.807312 
	C522.736145,722.271545 530.174988,716.387146 537.843018,710.244385 
	C538.048401,709.978760 538.011169,710.004089 537.995605,710.020264 
z"/>
<path fill="#000000" opacity="1.000000" stroke="none" 
	d="
M620.852417,645.635925 
	C620.708313,637.258484 623.531738,632.489502 629.767944,630.066833 
	C636.881226,627.303345 645.487793,629.148987 650.031433,634.412537 
	C654.200867,639.242554 654.858459,646.436890 651.650940,652.128784 
	C648.675964,657.407959 641.984741,660.323914 634.709778,659.139709 
	C627.248291,657.925110 622.251831,653.854736 620.852417,645.635925 
M631.761780,638.219727 
	C631.147461,639.186707 630.339355,640.082581 629.953857,641.133545 
	C628.594055,644.841187 629.553467,648.099670 632.681458,650.378174 
	C635.423767,652.375610 638.593628,652.562500 641.543457,650.674377 
	C644.952576,648.492249 645.635559,645.140015 644.649170,641.496826 
	C643.361816,636.741760 638.074829,635.202148 631.761780,638.219727 
z"/>
<path fill="#000000" opacity="1.000000" stroke="none" 
	d="
M361.184387,659.503052 
	C363.570709,650.589233 369.722290,645.387695 378.281677,644.874573 
	C384.031677,644.529846 388.801331,646.384033 391.650818,651.686951 
	C394.511078,657.010071 393.713409,663.439331 389.908020,668.015686 
	C385.900085,672.835571 380.536957,674.901672 374.533203,675.041199 
	C366.291626,675.232788 360.895813,668.939697 361.184387,659.503052 
M374.032135,666.832642 
	C375.670227,666.771423 377.397827,667.023804 378.928650,666.586792 
	C382.664581,665.520264 384.586029,662.777710 384.876282,658.941956 
	C385.102203,655.956543 383.767853,653.834961 380.982513,652.736694 
	C377.552643,651.384155 372.568573,653.252258 370.619537,656.546021 
	C368.359711,660.365112 369.189606,663.541809 374.032135,666.832642 
z"/>
<path fill="#000000" opacity="1.000000" stroke="none" 
	d="
M601.602905,636.383179 
	C601.909058,632.576111 600.407776,628.044922 606.664246,628.671265 
	C608.656494,628.870667 609.908813,629.591675 609.933838,631.603149 
	C610.031006,639.423340 610.073303,647.244812 610.053772,655.065552 
	C610.047119,657.736633 608.196960,658.285461 605.948181,658.223633 
	C603.852417,658.165955 601.822632,658.067444 601.708801,655.229919 
	C601.682068,654.564880 601.677795,653.898926 601.646729,653.234070 
	C601.337097,646.597839 598.347717,644.719666 592.214355,647.257568 
	C589.392395,648.425293 590.468811,650.886597 590.348328,652.879883 
	C590.197083,655.381531 590.712219,657.999084 586.859741,658.174255 
	C583.132263,658.343811 582.283081,656.140137 582.233643,653.174438 
	C582.125610,646.684998 582.133362,640.193665 582.040344,633.703918 
	C581.992004,630.329163 583.101318,628.478516 586.949524,628.529175 
	C591.093750,628.583801 590.203857,631.360474 590.341614,633.720032 
	C590.472290,635.959900 589.714600,638.913696 593.048828,639.230225 
	C596.055725,639.515747 599.834229,641.398804 601.602905,636.383179 
z"/>
<path fill="#000000" opacity="1.000000" stroke="none" 
	d="
M503.479675,632.085571 
	C508.249969,631.795898 512.570190,631.623901 516.881348,631.322693 
	C519.288635,631.154541 520.772949,631.948975 520.915100,634.512329 
	C521.041382,636.790894 520.362488,638.409485 517.711060,638.584534 
	C515.227051,638.748596 512.752075,639.054321 510.274719,639.313660 
	C508.651947,639.483521 506.497467,639.313721 506.760193,641.736816 
	C507.013733,644.075439 509.164581,643.567200 510.755280,643.523010 
	C512.245422,643.481567 513.726501,643.148682 515.217285,643.091797 
	C517.703491,642.996643 518.862854,644.373901 518.914062,646.766174 
	C518.962524,649.028076 517.732605,649.976624 515.562744,650.241760 
	C512.675720,650.594543 509.226868,649.559387 507.134430,653.281677 
	C510.328857,655.174011 513.471497,653.628418 516.458252,653.889771 
	C518.740540,654.089417 520.898376,654.129028 521.028625,657.181152 
	C521.164246,660.357727 519.120850,661.046570 516.528931,661.208252 
	C511.888855,661.497559 507.245178,661.763977 502.616302,662.185852 
	C499.323822,662.486023 498.014465,660.948181 498.100342,657.862610 
	C498.303833,650.550171 498.580200,643.239197 498.708191,635.925537 
	C498.760864,632.915771 500.850159,632.561218 503.479675,632.085571 
z"/>
<path fill="#000000" opacity="1.000000" stroke="none" 
	d="
M481.148926,633.992676 
	C482.588745,633.900146 483.585632,633.837280 484.582581,633.836670 
	C486.624298,633.835449 487.580841,634.999451 487.777100,636.918396 
	C488.002472,639.121460 486.987305,640.450378 484.824829,640.761780 
	C482.687195,641.069763 480.504028,641.098267 478.385620,641.490906 
	C476.849884,641.775574 474.587830,641.753296 474.644592,643.962585 
	C474.706696,646.379150 476.940460,645.820557 478.513794,645.892822 
	C479.507080,645.938477 480.507874,645.808838 481.505737,645.767883 
	C483.871216,645.670837 486.367157,645.342407 486.631317,648.809692 
	C486.867981,651.915771 484.675751,652.214783 482.433838,652.520569 
	C480.621185,652.767822 478.819946,653.097534 477.009583,653.363159 
	C475.743591,653.548889 474.750244,653.979248 474.789459,655.861633 
	C477.335754,657.832214 480.321777,656.679138 483.084503,656.337952 
	C485.872528,655.993652 487.652466,656.411804 487.970459,659.584595 
	C488.265259,662.525940 486.682190,663.247864 484.132172,663.488647 
	C479.503082,663.925720 474.901978,664.651306 470.282715,665.202454 
	C467.378815,665.549011 465.885651,664.241516 465.895233,661.263550 
	C465.918762,653.940125 465.933716,646.616760 465.925110,639.293335 
	C465.921661,636.348999 467.531555,635.191650 470.281769,635.000305 
	C473.761688,634.758118 477.231750,634.373596 481.148926,633.992676 
z"/>
<path fill="#000000" opacity="1.000000" stroke="none" 
	d="
M560.005859,628.709229 
	C563.367920,628.636658 566.037354,629.450073 568.354187,631.226624 
	C570.140137,632.596130 570.920532,634.355957 569.443237,636.392761 
	C568.156067,638.167297 566.426697,638.393921 564.664001,637.100403 
	C562.141663,635.249573 559.700378,634.495361 556.968567,637.317078 
	C558.434998,639.940552 561.173157,640.254822 563.542358,641.080688 
	C567.797546,642.563904 571.780823,644.337280 571.692444,649.752502 
	C571.620667,654.151123 567.389404,658.054504 561.984070,659.037720 
	C556.430420,660.047913 550.518188,657.892090 548.765564,654.257446 
	C548.032654,652.737549 547.887817,651.160950 549.455811,650.314697 
	C551.065857,649.445740 552.711853,647.673950 554.856262,649.310242 
	C555.770691,650.007874 556.569031,651.036682 557.596375,651.367310 
	C559.319519,651.921997 561.652283,652.355225 562.295105,650.125732 
	C562.921509,647.953186 560.722839,647.631104 559.091370,647.295105 
	C558.605774,647.195129 558.098694,647.204834 557.606567,647.130310 
	C551.961914,646.275146 548.494202,643.115173 548.153687,638.525330 
	C547.812195,633.922974 550.917664,630.403198 556.608521,629.031189 
	C557.566284,628.800293 558.582520,628.811890 560.005859,628.709229 
z"/>
<path fill="#000000" opacity="1.000000" stroke="none" 
	d="
M680.136841,650.526550 
	C675.524231,650.980042 671.260132,651.105408 672.113403,657.393494 
	C672.392883,659.453430 670.507141,660.063232 668.690979,660.092468 
	C666.564392,660.126770 664.339844,659.746399 664.272095,657.177429 
	C664.062561,649.227356 664.077820,641.269714 664.126526,633.315735 
	C664.137268,631.552490 665.454407,630.751831 667.179077,630.746033 
	C671.489929,630.731445 675.826416,630.547791 680.035828,631.708069 
	C684.612061,632.969482 687.834106,635.781860 687.983032,640.715088 
	C688.134155,645.719177 685.739807,649.277893 680.136841,650.526550 
M676.997925,643.426514 
	C678.879883,642.485413 679.212402,641.010498 678.043945,639.408386 
	C677.052856,638.049316 675.456482,638.117249 673.989563,638.548035 
	C672.940918,638.856018 672.440979,639.750427 672.489746,640.827026 
	C672.602356,643.311218 674.358704,643.580872 676.997925,643.426514 
z"/>
<path fill="#000000" opacity="1.000000" stroke="none" 
	d="
M326.487183,670.131836 
	C324.620941,657.474182 336.413818,647.012085 348.595276,650.077393 
	C350.734497,650.615723 353.133484,651.325745 352.210297,654.325378 
	C351.431732,656.855286 350.213348,658.633850 346.732208,657.517944 
	C341.557892,655.859436 337.740631,657.701965 335.505188,662.179382 
	C334.071289,665.051392 333.638489,667.985107 335.871857,670.613953 
	C338.242188,673.403931 341.420715,673.428894 344.602112,672.403564 
	C346.153656,671.903564 347.552490,670.929749 348.964996,670.199097 
	C353.333893,673.808594 353.220093,675.736511 348.618866,678.210510 
	C339.320953,683.209961 330.205109,680.028015 326.487183,670.131836 
z"/>
<path fill="#000000" opacity="1.000000" stroke="none" 
	d="
M434.862152,642.363892 
	C434.994385,640.683594 435.357788,639.295654 436.594116,639.123474 
	C442.502502,638.300781 448.429535,637.566467 454.372070,637.061768 
	C456.211548,636.905518 456.714539,638.664368 456.789215,640.252075 
	C456.871613,642.004150 456.609375,643.684570 454.493866,644.092773 
	C452.212189,644.532959 449.905182,644.843872 447.606628,645.193909 
	C445.862701,645.459473 443.420258,645.113708 443.557404,647.737000 
	C443.713959,650.731812 446.343323,649.866394 448.209198,649.961853 
	C449.034821,650.004028 449.868225,649.881653 450.698608,649.845764 
	C452.640411,649.761780 453.927277,650.499329 454.070160,652.603638 
	C454.194519,654.435303 453.719238,655.910034 451.688416,656.398865 
	C451.203461,656.515503 450.715118,656.750366 450.234863,656.734375 
	C444.947906,656.559021 442.207031,658.488892 443.046234,664.350769 
	C443.495056,667.485901 440.846069,668.025024 438.355927,668.120728 
	C435.698090,668.222839 434.929321,666.562622 434.919373,664.274902 
	C434.888336,657.124512 434.865784,649.974121 434.862152,642.363892 
z"/>
<path fill="#000000" opacity="1.000000" stroke="none" 
	d="
M411.775452,667.651855 
	C411.130219,671.584839 408.462341,671.430786 405.957031,671.127808 
	C403.375031,670.815674 403.743164,668.578796 403.726685,666.825256 
	C403.664276,660.173523 403.764435,653.519714 403.645996,646.869446 
	C403.595795,644.049866 404.630554,642.465027 407.502289,642.170898 
	C412.130219,641.696777 416.751282,641.155334 421.380554,640.695679 
	C423.303070,640.504700 425.131714,640.552124 425.278839,643.233643 
	C425.403687,645.508545 424.823120,647.188416 422.235992,647.490601 
	C419.929443,647.760010 417.624390,648.042542 415.319244,648.324036 
	C413.692139,648.522644 412.296082,649.075684 412.513916,651.051636 
	C412.704987,652.784668 414.158783,652.939087 415.520538,652.980591 
	C416.681641,653.016052 417.848236,652.959473 419.009277,652.890564 
	C421.376068,652.750122 422.872925,653.650940 423.050415,656.176819 
	C423.246094,658.961609 421.714447,660.082336 419.149994,660.194214 
	C418.983856,660.201477 418.815308,660.234192 418.652100,660.216492 
	C413.390930,659.646423 411.279907,662.143250 411.775452,667.651855 
z"/>
<path fill="#000000" opacity="1.000000" stroke="none" 
	d="
M827.947876,619.235962 
	C830.595032,625.888977 829.417419,630.477234 824.591309,633.406372 
	C819.962219,636.216064 814.279480,635.280457 810.683350,631.116516 
	C807.307495,627.207886 807.087708,622.309937 810.111511,618.379456 
	C813.559448,613.897766 818.554565,612.626953 823.305115,615.039185 
	C825.108215,615.954712 826.591064,617.251587 827.947876,619.235962 
M823.224976,625.220520 
	C823.405518,626.690186 823.586060,628.159912 823.839050,630.219177 
	C826.670471,625.174194 826.611816,623.534729 823.622070,620.023682 
	C823.478760,621.735657 823.359802,623.156128 823.224976,625.220520 
M813.893372,627.960938 
	C813.893372,625.479126 813.893372,622.997253 813.893372,620.515442 
	C811.328979,623.432129 809.343750,626.325317 813.893372,627.960938 
z"/>
<path fill="#000000" opacity="1.000000" stroke="none" 
	d="
M417.542297,717.019165 
	C416.561554,717.195190 415.939362,717.349609 415.163727,717.542053 
	C421.212921,721.782471 421.212921,721.782471 414.763306,725.642151 
	C415.991852,727.611450 418.126953,726.553223 419.748871,727.140259 
	C421.008545,727.596252 421.715057,728.397522 421.720062,729.695251 
	C421.725525,731.112244 420.788055,731.856140 419.498474,731.893799 
	C416.844910,731.971191 414.174011,732.043579 411.534180,731.826721 
	C409.191040,731.634155 408.779266,729.763428 408.775269,727.788208 
	C408.768890,724.624512 408.657501,721.455627 408.806244,718.299072 
	C408.901001,716.287170 407.869995,713.508484 410.683441,712.693909 
	C414.029816,711.725037 417.562927,711.431458 420.946655,712.829529 
	C421.778107,713.173096 422.108368,714.067200 421.911926,714.934692 
	C421.407532,717.162170 419.497070,716.806091 417.542297,717.019165 
z"/>
<path fill="#000000" opacity="1.000000" stroke="none" 
	d="
M427.609070,722.365601 
	C424.919739,719.590149 424.528107,716.665222 426.847839,714.106567 
	C428.880280,711.864746 431.795135,711.539490 434.687347,712.693176 
	C436.295380,713.334595 437.972534,714.333496 437.494354,716.264709 
	C436.922180,718.575623 435.078827,717.936035 433.439850,717.290344 
	C432.706573,717.001404 431.903229,716.543701 431.088654,717.454102 
	C431.653931,719.460632 433.807159,719.614868 435.125092,720.729065 
	C438.470306,723.557190 439.030396,726.920410 436.462494,729.810913 
	C433.951111,732.637817 428.630035,732.887268 426.061768,730.309326 
	C425.184143,729.428467 424.593628,728.453857 425.193329,727.206726 
	C425.804352,725.935852 426.964935,725.783936 428.168823,726.064941 
	C429.414551,726.355713 430.602051,727.249023 432.110718,726.186523 
	C431.839111,723.635742 428.972839,724.093323 427.609070,722.365601 
z"/>
<path fill="#000000" opacity="1.000000" stroke="none" 
	d="
M607.090149,722.501953 
	C606.333862,725.494019 605.662720,728.141724 603.531677,729.922607 
	C601.424011,731.683899 598.517517,733.316040 596.573242,730.639954 
	C594.570618,727.883545 598.830872,727.863525 599.842529,725.932251 
	C598.777893,725.308960 597.646484,724.746765 596.624207,724.029114 
	C593.619080,721.919739 592.935547,719.059692 594.227234,715.722229 
	C595.500671,712.431702 598.105957,711.421875 601.422729,711.771118 
	C604.953003,712.142944 606.667969,714.361877 607.148376,717.632568 
	C607.362061,719.087524 607.174500,720.601440 607.090149,722.501953 
M601.141235,720.432922 
	C602.805176,719.465149 603.119934,718.226746 601.621155,716.918396 
	C600.719971,716.131714 599.683716,716.497009 599.094482,717.435669 
	C598.049377,719.100342 598.476135,720.235962 601.141235,720.432922 
z"/>
<path fill="#000000" opacity="1.000000" stroke="none" 
	d="
M610.951538,729.957764 
	C608.982910,726.865295 610.317749,726.057068 613.002258,726.344055 
	C614.637817,726.518860 616.338440,727.202026 617.150513,724.995728 
	C616.984009,723.386108 615.753723,723.075012 614.613647,723.209351 
	C610.744995,723.665283 609.724792,721.784546 609.787231,718.255737 
	C609.888000,712.560913 614.734558,709.513367 619.804688,712.168274 
	C620.604492,712.587036 621.106201,713.181152 621.159912,714.081787 
	C621.226746,715.203735 620.782349,716.058350 619.619873,716.280945 
	C618.509094,716.493713 617.371765,716.567993 615.073364,716.843872 
	C618.607483,718.579163 621.653259,719.491211 622.346924,722.799194 
	C622.734985,724.649292 622.502625,726.457153 621.596802,728.118591 
	C619.687988,731.619934 615.980774,732.353455 610.951538,729.957764 
z"/>
<path fill="#000000" opacity="1.000000" stroke="none" 
	d="
M590.923523,725.566406 
	C588.698608,730.020508 586.000366,732.746094 581.002075,730.739746 
	C580.023193,727.918579 583.086304,727.686035 583.862854,725.955566 
	C582.263489,724.763733 580.422546,723.879639 579.437317,722.078613 
	C577.942261,719.345520 578.080261,716.576721 579.823914,714.084961 
	C581.296204,711.981018 583.647888,711.404053 586.063232,711.929565 
	C589.251221,712.623169 591.373901,714.689880 592.050415,717.904541 
	C592.574280,720.393433 592.135620,722.865967 590.923523,725.566406 
M584.187256,720.869324 
	C586.398071,721.760071 587.324341,720.624695 587.315918,718.632751 
	C587.311584,717.624451 586.337769,716.653259 585.344360,716.774719 
	C583.014221,717.059570 583.059570,718.668762 584.187256,720.869324 
z"/>
<path fill="#000000" opacity="1.000000" stroke="none" 
	d="
M451.302185,720.557495 
	C451.248077,723.813782 451.237427,726.637634 451.150421,729.459229 
	C451.102264,731.021118 450.230927,731.924377 448.645447,731.963684 
	C447.015717,732.004150 446.176727,731.000977 446.079529,729.513245 
	C445.938995,727.362671 445.944000,725.199463 445.962738,723.042297 
	C445.987671,720.168823 446.350433,717.226746 442.149231,716.851135 
	C440.913666,716.740662 440.292633,715.526428 440.504547,714.185120 
	C440.730652,712.754272 441.867645,712.306946 443.054565,712.259460 
	C446.368988,712.126770 449.688904,712.083374 453.006287,712.097839 
	C454.193848,712.103027 455.375275,712.462158 455.727661,713.821594 
	C456.092896,715.230530 455.222107,716.020447 454.049591,716.463684 
	C452.330811,717.113525 451.204773,718.139893 451.302185,720.557495 
z"/>
<path fill="#000000" opacity="1.000000" stroke="none" 
	d="
M576.127075,717.389771 
	C576.130188,721.148865 576.146912,724.458618 576.128174,727.768127 
	C576.118103,729.538391 575.807922,731.210815 573.536560,731.200439 
	C571.302551,731.190308 571.014343,729.512146 570.854492,727.763123 
	C570.492737,723.805176 572.137207,719.373474 567.827698,716.394104 
	C569.287231,713.776184 571.334045,712.264038 573.899353,712.532288 
	C576.185913,712.771423 575.955566,715.155151 576.127075,717.389771 
z"/>
<path fill="#000000" opacity="1.000000" stroke="none" 
	d="
M463.149048,727.133301 
	C464.928162,729.840027 463.637604,731.175537 461.351318,731.597351 
	C459.654358,731.910461 458.356232,730.754761 458.527863,728.994629 
	C458.799530,726.209167 460.668488,726.055054 463.149048,727.133301 
z"/>
<path fill="#000000" opacity="1.000000" stroke="none" 
	d="
M556.093262,731.775513 
	C553.578796,730.580322 553.351990,728.998169 555.066528,727.438660 
	C556.148071,726.455017 557.725647,726.582642 558.480347,727.922302 
	C559.648132,729.995422 558.705688,731.325989 556.093262,731.775513 
z"/>
</svg>